<!-- <svg width="216" height="360" xmlns="http://www.w3.org/2000/svg"><path d="M0 48L48 0h120l48 48v120L112.8 360h-60l93.6-168H48L0 144m64.8-96L48 64.8v62.4L64.8 144h86.4l16.8-16.8V64.8L151.2 48H96" stroke-miterlimit="10" font-family="sans-serif" font-size="12"/></svg>
 -->
<svg width="216" height="360" xmlns="http://www.w3.org/2000/svg"><path d="M168 0l48 48v264l-48 48H48L0 312v-48h48v31.2L64.8 312h86.4l16.8-16.8V216H48L0 168V48L48 0m120 64.8L151.2 48H64.8L48 64.8v86.4L64.8 168h86.4l16.8-16.8" stroke-miterlimit="10" font-family="sans-serif" font-size="12"/></svg>